<?xml version="1.0" standalone="no"?>
<!DOCTYPE svg PUBLIC "-//W3C//DTD SVG 20010904//EN"
 "http://www.w3.org/TR/2001/REC-SVG-20010904/DTD/svg10.dtd">
<svg version="1.0" xmlns="http://www.w3.org/2000/svg"
 width="1024.000000pt" height="1024.000000pt" viewBox="0 0 1024.000000 1024.000000"
 preserveAspectRatio="xMidYMid meet">

<g transform="translate(0.000000,1024.000000) scale(0.100000,-0.100000)"
fill="#000000" stroke="none">
<path d="M3338 8573 l-3 -1668 -1667 -3 -1668 -2 0 -75 0 -75 1668 -2 1667 -3
0 -1625 0 -1625 -1667 -3 -1668 -2 0 -75 0 -75 1668 -2 1667 -3 3 -1668 2
-1667 75 0 75 0 2 1668 3 1667 1625 0 1625 0 3 -1667 2 -1668 75 0 75 0 2
1668 3 1667 1668 3 1667 2 0 75 0 75 -1667 2 -1668 3 0 1625 0 1625 1668 3
1667 2 0 75 0 75 -1667 2 -1668 3 -3 1668 -2 1667 -75 0 -75 0 -2 -1667 -3
-1668 -1625 0 -1625 0 -3 1668 -2 1667 -75 0 -75 0 -2 -1667z m3412 -3453 l0
-1630 -1630 0 -1630 0 0 1630 0 1630 1630 0 1630 0 0 -1630z"/>
</g>
</svg>
