<?xml version="1.0" standalone="no"?>
<!DOCTYPE svg PUBLIC "-//W3C//DTD SVG 20010904//EN"
 "http://www.w3.org/TR/2001/REC-SVG-20010904/DTD/svg10.dtd">
<svg version="1.0" xmlns="http://www.w3.org/2000/svg"
 width="512.000000pt" height="512.000000pt" viewBox="0 0 512.000000 512.000000"
 preserveAspectRatio="xMidYMid meet">

<g transform="translate(0.000000,512.000000) scale(0.100000,-0.100000)"
fill="#000000" stroke="none">
<path d="M2280 5108 c-459 -38 -848 -175 -1195 -419 -109 -77 -339 -304 -421
-414 -260 -352 -416 -774 -480 -1305 -22 -180 -25 -648 -6 -815 96 -812 426
-1401 997 -1778 547 -361 1390 -475 2118 -286 698 182 1225 662 1481 1350 211
569 245 1325 86 1949 -203 799 -708 1359 -1445 1601 -322 106 -746 150 -1135
117z m555 -1127 c191 -40 346 -122 483 -255 245 -236 372 -631 372 -1150 0
-562 -156 -997 -442 -1235 -88 -74 -261 -162 -373 -191 -126 -33 -293 -46
-427 -32 -149 15 -252 42 -367 98 -356 171 -571 520 -636 1033 -24 186 -17
574 13 741 100 551 361 873 799 985 154 39 411 42 578 6z"/>
</g>
</svg>
