<?xml version="1.0" standalone="no"?>
<!DOCTYPE svg PUBLIC "-//W3C//DTD SVG 20010904//EN"
 "http://www.w3.org/TR/2001/REC-SVG-20010904/DTD/svg10.dtd">
<svg version="1.0" xmlns="http://www.w3.org/2000/svg"
 width="512.000000pt" height="512.000000pt" viewBox="0 0 512.000000 512.000000"
 preserveAspectRatio="xMidYMid meet">

<g transform="translate(0.000000,512.000000) scale(0.100000,-0.100000)"
fill="#000000" stroke="none">
<path d="M4250 4514 c-23 -9 -327 -307 -862 -841 l-827 -827 -810 809 c-513
513 -826 819 -853 833 -35 19 -54 23 -101 20 -143 -10 -231 -163 -165 -287 15
-27 324 -343 833 -852 l809 -810 -827 -827 c-581 -581 -831 -838 -842 -864
-64 -157 88 -320 251 -268 32 10 195 168 871 843 l832 831 810 -809 c509 -509
825 -818 852 -832 124 -67 277 21 287 164 3 47 -1 66 -20 101 -14 27 -320 340
-833 853 l-809 810 831 832 c899 900 860 857 851 959 -13 130 -157 214 -278
162z"/>
</g>
</svg>
